<?xml version="1.0" standalone="no"?>
<!DOCTYPE svg PUBLIC "-//W3C//DTD SVG 20010904//EN"
 "http://www.w3.org/TR/2001/REC-SVG-20010904/DTD/svg10.dtd">
<svg version="1.0" xmlns="http://www.w3.org/2000/svg"
 width="204.000000pt" height="192.000000pt" viewBox="0 0 204.000000 192.000000"
 preserveAspectRatio="xMidYMid meet">
<metadata>
Created by potrace 1.10, written by Peter Selinger 2001-2011
</metadata>
<g transform="translate(0.000000,192.000000) scale(0.100000,-0.100000)"
fill="#000000" stroke="none">
<path d="M828 1910 c-295 -50 -583 -278 -713 -564 -58 -128 -80 -240 -80 -411
1 -131 4 -162 28 -250 48 -175 129 -315 255 -441 90 -89 161 -140 274 -194 96
-47 146 -59 159 -39 6 10 9 11 9 2 0 -17 42 -17 59 -1 8 7 11 8 8 2 -5 -8 17
-12 68 -13 75 -2 101 11 45 22 -33 7 -39 27 -15 47 12 10 19 10 27 2 9 -9 8
-12 -5 -12 -9 0 -17 -4 -17 -10 0 -16 27 -11 34 6 11 29 6 34 -29 34 -34 0
-35 -1 -35 -41 0 -28 -4 -39 -12 -36 -7 2 -12 9 -11 15 1 5 -4 13 -12 16 -8 3
-15 1 -15 -4 0 -16 -20 -11 -27 6 -3 9 0 20 7 24 11 7 10 11 -3 24 -14 15 -16
14 -23 -6 -4 -13 -7 -36 -6 -52 1 -21 -2 -26 -11 -17 -6 6 -19 11 -29 11 -18
0 -54 57 -44 68 4 3 22 6 41 6 44 1 45 10 1 23 -33 10 -35 9 -47 -19 -7 -17
-12 -36 -12 -44 0 -9 -4 -11 -12 -4 -7 5 -15 6 -20 2 -4 -4 -1 4 8 18 21 34
30 70 19 70 -6 0 -17 -18 -26 -41 -9 -22 -21 -37 -26 -34 -7 4 -6 13 0 26 7
13 7 19 0 19 -18 0 -10 18 11 23 12 3 18 10 14 16 -9 16 -35 13 -35 -4 0 -8
-5 -15 -11 -15 -7 0 -9 -10 -5 -25 4 -14 2 -25 -3 -25 -12 0 -21 25 -21 57 0
18 4 24 15 19 9 -3 15 0 15 9 0 28 -30 15 -48 -21 -11 -22 -22 -32 -26 -26 -3
6 2 25 13 43 11 17 17 37 15 43 -6 16 40 40 61 32 9 -3 22 -21 30 -40 17 -41
41 -53 48 -25 9 32 49 21 67 -18 11 -25 21 -33 42 -33 15 0 30 -4 33 -10 11
-18 25 -10 25 15 0 18 5 25 19 25 11 0 23 -4 26 -10 3 -5 0 -10 -8 -10 -8 0
-17 -6 -20 -14 -4 -10 7 -15 40 -20 63 -8 75 -8 68 4 -9 15 13 40 35 40 9 0
25 -9 35 -20 10 -11 13 -20 7 -20 -6 0 -14 4 -17 10 -10 16 -32 12 -39 -6 -6
-15 0 -16 43 -11 46 6 50 4 48 -16 -2 -56 4 -87 17 -87 8 0 16 6 19 13 3 9 9
9 29 -1 35 -19 103 -12 102 10 -1 10 2 15 7 12 5 -3 23 -3 39 1 27 6 28 7 12
26 -20 23 -32 24 -32 4 0 -18 -12 -19 -28 -3 -9 9 -12 7 -12 -11 0 -12 -4 -19
-10 -16 -5 3 -10 15 -10 26 0 12 -4 17 -11 13 -6 -3 -8 -17 -5 -30 5 -17 2
-24 -9 -24 -8 0 -15 4 -15 9 0 5 -10 11 -22 13 -28 4 -33 44 -5 42 9 -1 17 3
17 8 0 6 -12 8 -30 4 -17 -3 -30 -1 -30 4 0 5 26 14 58 21 91 18 107 26 91 45
-11 14 -10 18 6 30 23 17 33 10 15 -11 -25 -30 18 -28 76 4 57 31 91 40 79 21
-3 -5 4 -27 15 -50 15 -30 17 -40 7 -40 -7 0 -21 17 -32 38 -10 20 -20 32 -22
25 -2 -6 3 -26 12 -43 20 -38 10 -54 -13 -23 -12 16 -23 21 -39 17 -13 -4 -23
-2 -23 4 0 5 10 13 23 17 12 3 17 9 10 11 -6 3 -25 -2 -42 -11 l-31 -15 19
-49 18 -49 -26 -21 -26 -22 25 6 c48 12 194 86 255 130 92 65 190 167 250 258
74 116 91 151 127 279 31 106 33 122 33 268 -1 129 -5 170 -24 244 -70 271
-262 510 -507 635 -121 61 -344 120 -344 91 0 -6 5 -8 10 -5 6 3 10 1 10 -6 0
-11 -63 -5 -85 9 -15 10 -39 8 -47 -3 -5 -6 -8 -5 -8 3 0 6 -8 12 -17 11 -12
0 -13 -2 -5 -6 9 -3 7 -10 -9 -24 -19 -17 -21 -23 -11 -45 7 -14 12 -34 12
-45 0 -11 5 -17 10 -14 6 3 10 1 10 -4 0 -6 -5 -11 -11 -11 -6 0 -9 -7 -5 -15
5 -13 2 -14 -17 -3 -12 7 -27 11 -33 10 -6 -1 -11 5 -11 13 0 8 4 15 9 15 5 0
4 10 -3 22 -10 18 -9 20 5 15 10 -4 15 -3 11 3 -3 6 0 10 7 10 7 1 0 12 -16
25 -17 13 -33 22 -38 19 -4 -3 -8 0 -8 7 0 8 -5 7 -17 -2 -16 -13 -17 -12 -5
3 8 9 23 19 35 21 42 8 -25 5 -75 -3z m408 -34 c18 5 18 5 1 -6 -9 -6 -21 -9
-26 -6 -5 3 -11 -3 -14 -13 -3 -14 -11 -17 -31 -14 -15 3 -26 1 -26 -5 0 -6
10 -12 23 -14 12 -2 20 -7 17 -13 -3 -5 -12 -9 -22 -8 -9 1 -19 -4 -22 -12 -4
-11 2 -15 19 -15 23 0 42 -16 32 -27 -3 -3 -24 -2 -46 2 -41 7 -41 7 -35 43 3
21 7 46 8 57 2 16 12 21 45 23 29 2 39 7 34 15 -5 8 -2 8 9 -1 8 -7 24 -10 34
-6z m-156 -16 c0 -13 -5 -18 -15 -14 -12 5 -15 -4 -15 -46 0 -44 -3 -51 -17
-48 -15 3 -17 13 -15 51 3 42 1 47 -17 47 -21 0 -27 11 -14 23 3 4 26 7 50 7
36 0 43 -3 43 -20z m-172 -2 c-3 -7 -14 -14 -26 -16 -30 -5 -28 -22 3 -22 16
0 25 -6 25 -15 0 -8 -9 -15 -20 -15 -17 0 -19 -5 -14 -25 5 -21 3 -25 -15 -25
-16 0 -21 6 -21 29 0 16 -3 42 -6 59 -5 24 -2 31 12 35 38 10 66 7 62 -5z
m-125 -35 c8 -10 18 -30 22 -45 14 -55 -67 -92 -99 -46 -22 31 -20 64 4 88 25
25 52 26 73 3z m573 5 c3 -4 -1 -5 -9 -2 -8 3 -17 -2 -20 -10 -4 -11 -15 -13
-40 -9 -29 4 -36 2 -42 -16 -8 -26 0 -40 33 -52 18 -7 22 -13 14 -21 -8 -8
-19 -8 -41 2 -38 15 -50 60 -27 96 15 22 23 24 72 22 31 -1 58 -6 60 -10z
m-702 -48 c-2 -30 1 -38 12 -33 10 4 12 0 7 -13 -4 -12 -3 -15 5 -10 8 5 10 1
5 -10 -4 -11 -3 -15 4 -11 16 10 22 -16 7 -30 -15 -15 -28 -17 -19 -3 10 16
-3 12 -47 -16 -33 -21 -42 -23 -50 -12 -15 22 -38 67 -48 92 -7 20 -6 23 10
19 10 -3 21 0 24 6 10 16 36 14 36 -3 0 -7 -9 -16 -21 -19 -13 -3 -18 -10 -14
-17 5 -9 10 -9 18 -1 16 16 37 13 37 -4 0 -8 -7 -15 -15 -15 -8 0 -15 -7 -15
-16 0 -12 5 -14 18 -9 15 7 33 11 64 14 14 2 -4 30 -22 36 -12 4 -16 12 -13
26 3 11 2 19 -3 18 -5 -1 -17 1 -26 5 -15 7 -16 10 -3 23 8 8 20 11 27 7 8 -5
9 -2 5 9 -4 11 -2 14 7 11 8 -3 12 -19 10 -44z m736 24 c0 -3 -5 -14 -10 -24
-8 -15 -6 -21 9 -30 16 -8 21 -6 26 10 6 19 25 26 37 14 5 -4 -36 -100 -48
-113 -2 -3 -9 0 -15 6 -8 8 -8 17 0 31 8 16 7 21 -5 26 -25 9 -34 7 -34 -8 0
-18 -16 -29 -30 -21 -13 8 40 115 57 115 7 0 13 -3 13 -6z m107 -41 c-4 -3 2
-12 13 -20 17 -12 19 -22 14 -56 l-6 -42 23 33 c14 22 25 30 32 23 12 -12 -50
-114 -67 -108 -7 3 -10 25 -9 58 l3 54 -21 -35 c-28 -46 -28 -45 -40 -33 -8 8
-4 21 17 48 15 20 29 46 30 58 3 28 3 27 11 27 3 0 3 -3 0 -7z m-993 -59 c3
-8 -1 -17 -9 -20 -11 -5 -7 -15 17 -45 l32 -39 -22 -16 c-12 -8 -20 -20 -17
-25 10 -15 -1 -10 -15 7 -8 8 -9 14 -4 13 23 -4 22 4 -2 41 -20 30 -30 38 -39
30 -9 -8 -15 -8 -20 0 -6 10 31 49 49 50 4 0 6 7 3 14 -4 10 -1 13 8 10 7 -3
16 -12 19 -20z m663 0 c426 -88 703 -496 617 -912 -60 -293 -284 -532 -566
-606 -374 -97 -776 104 -919 459 -77 192 -78 384 -5 578 131 344 514 555 873
481z m-737 -111 c16 -18 30 -39 30 -45 0 -15 -40 -58 -54 -58 -14 0 -86 66
-86 79 0 23 26 14 56 -18 25 -27 36 -33 44 -25 15 15 -1 49 -29 63 -10 6 -21
19 -23 29 -8 30 26 16 62 -25z m1234 31 c24 -23 20 -70 -6 -88 -32 -22 -61
-20 -87 7 -18 20 -20 29 -12 50 17 45 74 62 105 31z m93 -104 c9 -16 22 -30
27 -30 6 0 5 -5 -1 -11 -7 -7 -19 -9 -28 -5 -14 5 -15 9 -6 20 22 26 -9 30
-37 5 -15 -13 -29 -25 -31 -26 -2 -2 4 -12 14 -23 16 -18 16 -20 1 -26 -10 -4
-23 2 -36 17 -20 24 -26 49 -12 49 4 0 22 14 41 30 18 17 37 30 42 30 4 0 16
-13 26 -30z m-1448 -2 c-10 -19 -8 -25 24 -52 27 -23 34 -35 27 -46 -8 -12
-15 -9 -45 20 -33 32 -36 33 -48 15 -10 -13 -16 -15 -21 -6 -9 14 32 79 54 85
8 2 16 4 18 5 1 0 -3 -9 -9 -21z m1515 -90 c24 -33 20 -54 -16 -81 -63 -50
-134 27 -78 83 27 27 75 26 94 -2z m-1559 -24 c45 -25 64 -48 52 -61 -4 -3
-27 9 -53 26 -26 17 -51 31 -55 31 -5 0 -6 7 -3 15 8 19 3 20 59 -11z m-60
-54 c-4 -13 4 -21 35 -34 38 -15 49 -29 32 -40 -4 -2 -27 4 -50 14 -35 16 -42
17 -42 5 0 -17 -16 -20 -25 -5 -8 14 34 92 46 85 5 -4 7 -15 4 -25z m1660 -36
c19 -8 48 -61 40 -74 -11 -17 -20 -11 -32 20 -7 20 -18 30 -32 30 -22 0 -41
-27 -34 -47 6 -18 23 -16 23 2 0 22 17 18 30 -6 13 -24 14 -23 -26 -37 -29 -9
-33 -8 -43 14 -17 39 -13 71 11 88 24 17 38 19 63 10z m-1711 -91 l-7 -28 25
23 c30 28 55 28 63 1 9 -29 -2 -69 -20 -69 -17 0 -19 9 -6 30 16 24 0 33 -20
11 -23 -25 -42 -27 -59 -6 -16 19 -5 65 15 65 12 0 14 -7 9 -27z m1781 -25
c-4 -13 -16 -31 -27 -40 -15 -13 -17 -19 -7 -22 42 -13 49 -16 49 -27 0 -7 -9
-9 -27 -3 -16 4 -46 8 -67 8 -46 1 -59 22 -19 30 16 4 44 22 63 41 42 41 43
41 35 13z m-1762 -72 c63 -10 62 -36 -3 -52 -40 -10 -42 -12 -20 -17 14 -4 35
-8 47 -9 16 -2 20 -7 14 -16 -6 -11 -20 -11 -66 -3 -32 6 -60 13 -62 15 -12
11 14 36 44 42 37 7 28 24 -14 24 -15 0 -21 6 -20 19 1 14 5 17 17 12 8 -5 37
-12 63 -15z m1671 -39 c-4 -10 6 -13 41 -11 34 2 45 -1 45 -12 0 -7 -5 -14
-11 -14 -5 0 -8 -3 -6 -7 3 -5 -16 -8 -42 -8 -43 0 -46 2 -46 25 0 14 5 28 10
32 14 11 15 10 9 -5z m127 -15 c-9 -3 -10 -6 -2 -11 7 -5 2 -12 -14 -19 -24
-11 -25 -11 -15 8 6 11 8 24 5 29 -3 5 5 7 17 3 14 -3 17 -7 9 -10z m-11 -87
c0 -16 -9 -24 -37 -31 l-38 -10 38 -8 c30 -7 37 -13 37 -32 0 -23 -3 -24 -66
-24 -77 0 -86 22 -13 30 l44 5 -42 8 c-54 9 -56 31 -5 45 l37 10 -42 1 c-32 1
-43 5 -43 17 0 12 12 15 65 13 59 -2 65 -4 65 -24z m-1750 -10 c0 -12 -14 -15
-65 -15 -51 0 -65 3 -65 15 0 12 14 15 65 15 51 0 65 -3 65 -15z m-92 -57 c-2
-13 -8 -23 -15 -23 -6 0 -15 -3 -19 -7 -13 -14 -19 -8 -21 22 -2 27 1 30 28
30 26 0 30 -3 27 -22z m92 -52 c0 -8 -19 -26 -42 -40 l-43 -26 48 6 c38 6 47
4 47 -8 0 -12 -16 -17 -63 -22 -46 -5 -64 -11 -64 -22 0 -8 3 -14 7 -14 4 0 7
-6 7 -13 0 -8 -6 -14 -13 -14 -8 0 -11 12 -9 31 2 17 4 38 4 47 1 8 18 25 39
38 l37 22 -42 -6 c-35 -6 -43 -4 -43 8 0 16 24 22 98 25 22 2 32 -2 32 -12z
m1739 -78 c1 -22 -4 -25 -76 -33 -44 -5 -63 -4 -63 4 0 7 8 15 18 18 31 12 43
43 17 43 -15 0 -21 21 -9 32 11 11 113 -47 113 -64z m-1719 -43 c0 -9 -6 -18
-14 -21 -19 -7 -10 -31 15 -37 10 -3 19 -11 19 -19 0 -9 -17 -13 -64 -13 -57
0 -66 3 -70 20 -3 11 -2 21 2 23 4 1 27 16 52 32 51 34 60 36 60 15z m1688
-64 c3 -7 -3 -29 -13 -47 -22 -41 -63 -46 -96 -13 -17 17 -20 28 -14 57 4 20
9 40 11 43 7 11 106 -24 112 -40z m-1648 -64 c0 -15 -98 -59 -111 -51 -21 12
-6 30 39 45 59 21 72 22 72 6z m1550 -42 c28 -14 50 -28 50 -31 0 -3 -7 -18
-15 -34 -18 -35 -54 -41 -62 -10 -3 11 -9 17 -14 15 -4 -3 -19 -3 -33 1 -37 9
-22 37 15 29 33 -7 41 10 10 20 -12 4 -18 12 -14 21 7 18 5 18 63 -11z m-1501
-53 l20 -29 -42 -23 c-23 -13 -45 -28 -48 -33 -17 -25 -64 51 -54 84 9 26 64
50 87 38 9 -5 26 -22 37 -37z m1438 -67 c34 -45 35 -81 4 -72 -9 3 -37 11 -64
18 -51 14 -57 32 -13 37 25 3 27 6 21 33 -10 43 14 36 52 -16z m-1401 -45
c-22 -55 -21 -58 13 -26 21 20 31 24 36 15 5 -8 -8 -26 -36 -50 -38 -33 -46
-36 -59 -23 -13 12 -12 18 4 45 23 38 17 45 -17 19 -17 -13 -28 -17 -32 -10
-8 13 -12 9 45 54 54 42 69 34 46 -24z m1299 -19 c3 -6 -4 -15 -15 -21 -33
-17 -23 -29 23 -27 36 2 42 -1 45 -19 3 -21 -21 -54 -39 -54 -5 0 -9 7 -9 15
0 8 5 15 10 15 6 0 10 4 10 9 0 4 -16 8 -36 7 -52 -1 -67 24 -34 59 25 27 35
30 45 16z m-1234 -85 c-23 -23 -50 -42 -60 -42 -23 0 -21 4 32 60 32 33 45 41
55 33 10 -8 4 -19 -27 -51z m91 10 c7 4 8 2 4 -5 -4 -6 -1 -18 8 -26 11 -11
16 -12 19 -2 2 6 4 -5 4 -25 -1 -23 -4 -33 -9 -25 -5 8 -8 7 -8 -5 0 -10 6
-18 13 -19 6 -1 1 -5 -13 -9 -21 -7 -22 -8 -5 -10 20 -1 20 -1 0 -10 -17 -7
-17 -9 -3 -9 18 -1 14 -31 -4 -31 -5 0 -6 6 -3 13 4 6 -3 1 -15 -13 -12 -14
-19 -19 -15 -11 4 7 1 18 -6 23 -11 8 -10 9 4 4 9 -3 17 0 17 5 0 7 -11 9 -26
6 -21 -4 -25 -1 -21 13 3 13 0 17 -9 13 -8 -3 -20 0 -28 6 -7 6 -17 7 -21 3
-5 -4 -5 -1 -1 6 4 7 2 12 -5 12 -7 0 -9 3 -6 6 4 4 17 0 29 -8 20 -12 45 -15
94 -9 15 1 26 41 12 41 -6 0 -7 7 -4 16 3 8 2 12 -4 9 -6 -3 -10 -1 -10 4 0
17 -20 8 -52 -21 -30 -30 -43 -34 -53 -19 -3 5 5 11 17 13 12 2 24 10 26 18 5
13 3 13 -14 0 -17 -14 -18 -14 -6 2 8 9 20 14 29 11 11 -4 14 -2 11 8 -3 8 4
19 16 26 12 7 22 8 24 2 2 -5 9 -6 14 -3z m1056 -12 c12 -8 27 -12 34 -8 8 5
9 2 5 -10 -4 -10 -3 -15 3 -11 12 8 50 -17 50 -33 0 -7 -6 -15 -14 -18 -9 -3
-12 -12 -8 -22 5 -15 4 -15 -9 -2 -8 9 -21 29 -29 45 -18 34 -43 43 -66 24
-16 -13 -53 -20 -67 -12 -4 2 0 11 8 19 8 9 21 12 27 8 7 -4 10 -4 6 1 -4 4 0
14 10 21 22 17 23 17 50 -2z m-1065 -50 c11 -11 -5 -34 -24 -34 -18 0 -26 20
-12 33 8 9 28 9 36 1z m991 -8 c10 4 16 1 16 -9 0 -9 10 -19 21 -22 16 -5 18
-9 9 -15 -8 -5 0 -7 18 -6 17 1 34 5 39 9 4 5 -1 5 -12 2 -16 -6 -17 -5 -5 4
11 8 18 6 28 -6 11 -15 9 -19 -9 -25 -11 -5 -25 -6 -29 -3 -12 8 -41 -6 -34
-16 3 -5 10 -9 15 -9 6 0 7 5 4 10 -3 6 -1 10 5 10 7 0 9 -7 6 -16 -3 -9 -6
-17 -6 -20 0 -2 -7 0 -17 3 -12 5 -14 3 -8 -8 4 -8 -3 -4 -15 8 -20 19 -21 24
-10 38 7 8 10 19 6 22 -4 4 -11 1 -16 -7 -8 -13 -10 -12 -10 2 0 19 -28 50
-39 44 -4 -3 -8 1 -8 9 0 10 5 11 18 4 10 -5 25 -6 33 -3z m86 -6 c0 -13 -7
-20 -19 -20 -22 0 -35 15 -26 30 12 19 45 11 45 -10z m-157 -124 c3 -8 -1 -20
-9 -26 -11 -10 -19 -9 -39 4 -32 21 -32 28 0 20 15 -4 25 -2 25 5 0 16 17 14
23 -3z"/>
<path d="M725 1799 c-12 -19 4 -59 24 -59 23 0 31 18 20 48 -9 23 -33 30 -44
11z"/>
<path d="M880 1679 c-25 -5 -52 -12 -60 -15 -8 -4 -21 -6 -27 -5 -7 1 -13 -2
-13 -7 0 -6 -15 -13 -34 -16 -41 -8 -93 -45 -63 -46 9 0 17 5 17 10 0 6 12 10
26 10 16 0 23 4 18 11 -5 9 1 10 20 5 14 -3 26 -2 26 3 0 10 57 26 149 41 55
10 65 9 82 -6 10 -9 19 -12 19 -6 0 6 -3 12 -7 15 -5 2 -1 2 7 0 8 -3 48 -8
88 -13 43 -4 80 -15 91 -24 10 -9 24 -16 32 -15 8 0 6 4 -6 9 -18 8 -18 9 5
10 18 0 10 6 -30 21 -30 11 -65 18 -77 16 -13 -2 -23 0 -23 4 0 11 -181 10
-240 -2z"/>
<path d="M1275 1630 c-4 -6 -3 -10 2 -9 25 4 35 -4 13 -12 -23 -8 -23 -8 5 -4
31 4 115 -29 115 -46 0 -5 10 -9 23 -9 18 0 19 -2 7 -10 -11 -7 -11 -10 -2
-10 7 0 10 -5 6 -11 -5 -9 1 -10 20 -5 16 4 26 2 26 -4 0 -18 37 -53 44 -41 9
13 -20 41 -91 90 -50 33 -142 81 -157 81 -3 0 -8 -5 -11 -10z"/>
<path d="M1006 1587 c-3 -18 -31 -73 -61 -123 -70 -114 -103 -184 -122 -259
-17 -68 -14 -167 9 -231 l14 -40 -115 -16 c-139 -20 -211 -41 -247 -71 l-27
-23 21 -47 c80 -180 263 -290 508 -304 194 -11 369 52 494 178 44 45 103 159
94 182 -12 33 -162 76 -316 92 l-66 7 16 37 c12 26 16 65 16 136 -1 119 -25
193 -103 314 -52 82 -91 161 -91 185 0 29 -18 16 -24 -17z m28 -55 c4 -15 31
-66 61 -112 63 -98 91 -164 107 -258 14 -86 -7 -188 -57 -276 -50 -88 -68
-108 -88 -100 -23 8 -25 135 -2 154 8 7 15 19 15 26 0 8 8 14 19 14 10 0 30 9
45 21 25 20 26 22 9 34 -17 13 -17 14 0 20 24 10 21 25 -5 25 -22 0 -23 3 -26
117 -2 109 -9 145 -19 116 -7 -20 -21 -15 -28 8 -6 18 -8 18 -18 5 -14 -18
-45 -16 -58 5 -5 8 -9 10 -9 4 0 -5 -4 -16 -9 -24 -7 -12 -13 -12 -24 -3 -12
10 -15 -2 -21 -83 -3 -52 -4 -106 0 -120 5 -21 3 -25 -14 -25 -12 0 -24 -4
-27 -10 -3 -5 1 -10 9 -10 21 0 20 -17 -1 -29 -17 -9 -17 -11 2 -26 11 -8 31
-18 45 -21 38 -8 62 -58 64 -131 1 -35 -1 -63 -5 -63 -4 0 -14 -3 -22 -6 -11
-4 -28 14 -56 57 -62 95 -83 160 -85 254 -1 107 27 194 103 315 33 52 62 107
66 123 9 35 22 35 29 -1z m-70 -319 c-8 -25 -14 -60 -14 -76 0 -17 -3 -28 -6
-25 -3 4 -2 43 2 87 5 64 9 79 19 71 10 -9 10 -20 -1 -57z m80 26 c27 -67 31
-121 11 -163 -12 -25 -24 -36 -40 -36 -43 0 -58 82 -30 173 25 82 35 87 59 26z
m50 -71 l6 -63 -13 56 c-8 30 -17 61 -21 68 -4 6 -5 20 -1 29 6 15 8 14 15 -5
5 -12 11 -50 14 -85z m-114 -143 c0 -22 -24 -29 -51 -14 -23 12 -23 12 -4 20
33 13 55 10 55 -6z m131 5 c18 0 9 -19 -12 -25 -13 -5 -25 -2 -30 6 -10 18 0
32 18 25 8 -3 19 -6 24 -6z m-61 -33 c0 -13 -7 -32 -15 -43 -15 -19 -15 -19
-30 0 -28 36 -18 66 22 66 17 0 23 -6 23 -23z m-153 -154 c24 -36 41 -69 38
-71 -12 -12 -227 -14 -291 -3 -81 14 -164 39 -164 51 0 15 95 48 180 64 197
35 188 37 237 -41z m488 40 c95 -18 169 -47 163 -65 -10 -29 -128 -51 -285
-52 -83 0 -154 2 -157 5 -3 3 13 36 37 72 l42 67 60 -6 c33 -3 96 -12 140 -21z
m-350 -113 c4 -6 11 -8 16 -5 5 4 9 2 9 -3 0 -5 28 -12 61 -16 34 -3 69 -12
77 -19 13 -10 14 -9 7 2 -6 11 -4 13 9 8 21 -8 238 11 272 23 17 7 24 6 24 -2
0 -7 7 -3 16 8 8 10 6 1 -6 -22 -32 -59 -103 -130 -120 -119 -5 3 -7 0 -4 -8
3 -9 -7 -20 -28 -31 -18 -9 -40 -20 -48 -25 -45 -24 -64 -31 -122 -47 -109
-28 -398 -16 -398 18 0 5 -4 7 -9 4 -15 -9 -83 23 -75 36 4 7 3 8 -5 4 -21
-13 -141 83 -178 143 -27 44 -29 55 -5 46 45 -17 252 -42 302 -36 14 2 44 4
67 5 23 0 41 5 40 10 -1 4 9 10 22 12 13 2 31 9 40 14 21 12 28 12 36 0z"/>
<path d="M634 1575 c-4 -8 -10 -12 -15 -9 -13 8 -40 -16 -33 -28 3 -5 -2 -8
-12 -6 -12 2 -18 -2 -16 -10 1 -8 -2 -11 -8 -7 -24 15 -165 -158 -208 -255
-26 -61 -42 -100 -42 -105 0 -12 20 -4 20 8 1 20 66 148 72 141 3 -3 5 3 5 13
-1 11 4 18 15 17 10 -1 15 2 12 7 -7 11 5 49 14 46 4 -1 8 1 9 6 8 24 93 108
104 101 5 -3 9 0 9 6 0 6 11 15 24 21 16 8 23 17 19 28 -5 12 -3 13 7 5 9 -9
17 -7 31 7 21 21 24 29 9 29 -6 0 -13 -7 -16 -15z"/>
<path d="M1544 1458 c-4 -6 5 -21 19 -33 15 -11 27 -26 27 -33 0 -7 5 -12 10
-12 6 0 9 -3 9 -7 -1 -5 -1 -17 1 -28 1 -20 2 -20 9 -1 7 18 9 17 23 -10 8
-16 25 -47 37 -69 20 -33 21 -42 10 -60 -11 -18 -11 -19 4 -6 15 12 17 11 17
-7 0 -12 5 -24 11 -28 6 -3 9 -17 6 -30 -4 -24 6 -33 17 -15 8 12 -39 134 -76
199 -22 40 -34 52 -47 47 -12 -5 -13 -3 -4 6 12 12 12 12 -39 69 -18 19 -30
25 -34 18z"/>
<path d="M293 1126 c3 -8 1 -16 -5 -18 -30 -10 -16 -368 14 -368 6 0 7 -7 4
-15 -3 -9 -2 -23 3 -33 5 -9 21 -43 36 -74 15 -32 32 -58 37 -58 5 0 7 -4 4
-9 -7 -10 49 -84 98 -129 20 -19 36 -38 36 -43 0 -5 7 -9 17 -9 9 0 13 -3 10
-6 -11 -12 165 -113 233 -134 96 -30 195 -43 282 -37 80 7 196 32 212 47 5 5
15 6 22 3 8 -3 14 0 14 7 0 6 4 9 9 6 13 -8 135 69 147 94 7 13 13 17 16 9 2
-7 29 14 64 49 91 95 133 155 114 167 -5 3 -10 -1 -10 -9 0 -9 -10 -26 -22
-38 -13 -13 -28 -32 -34 -43 -6 -11 -16 -19 -23 -17 -7 1 -10 -2 -6 -7 8 -13
-26 -52 -38 -44 -6 3 -7 1 -3 -5 5 -8 0 -12 -13 -12 -14 0 -19 -5 -15 -15 4
-8 1 -15 -5 -15 -6 0 -11 6 -11 13 0 6 -10 0 -21 -15 -11 -16 -27 -28 -35 -28
-8 0 -14 -4 -14 -8 0 -15 -48 -33 -56 -21 -4 7 -26 8 -58 4 -28 -3 -82 -8
-121 -10 -38 -2 -91 -7 -117 -11 -49 -6 -68 8 -27 21 11 4 18 10 14 13 -7 8
-249 29 -265 24 -18 -6 -10 -17 13 -18 12 0 54 -4 92 -9 39 -4 81 -8 94 -8 15
1 20 -2 11 -7 -9 -5 -9 -9 -1 -14 6 -4 8 -12 5 -18 -4 -7 -2 -8 5 -4 6 4 34 2
62 -5 42 -11 52 -11 59 0 5 9 17 12 31 8 12 -3 30 -2 40 3 9 6 38 11 64 12 25
0 48 5 51 10 8 13 41 9 54 -7 15 -18 7 -19 -23 -3 -20 10 -21 10 -7 -6 13 -16
12 -18 -5 -16 -29 4 -86 -11 -80 -20 7 -11 -58 -22 -81 -14 -14 4 -15 3 -5 -4
19 -14 -3 -26 -34 -18 -13 3 -36 1 -50 -6 -19 -9 -28 -9 -33 -1 -5 7 -21 9
-50 3 -23 -4 -44 -4 -47 0 -4 7 -46 15 -129 25 -22 3 -43 10 -47 16 -3 6 -18
12 -31 12 -15 1 -24 7 -21 14 6 16 -31 35 -53 26 -13 -5 -15 -3 -9 7 5 9 4 11
-3 6 -7 -4 -12 -2 -12 3 0 6 -7 11 -15 11 -8 0 -23 8 -33 17 -10 10 -29 24
-44 32 -14 7 -29 22 -31 32 -3 11 -12 19 -20 19 -9 0 -19 9 -22 20 -3 11 -11
20 -16 20 -5 0 -14 11 -19 25 -5 14 -14 25 -20 25 -5 0 -10 9 -10 19 0 10 -7
22 -16 25 -12 5 -14 14 -10 34 5 19 4 23 -3 12 -8 -12 -12 -9 -20 13 -6 16
-11 32 -11 38 0 5 -8 18 -17 28 -9 11 -18 32 -20 48 -2 15 -4 36 -5 46 -1 9
-6 17 -11 17 -5 0 -5 9 -2 20 3 11 2 20 -2 20 -5 0 -10 28 -11 63 -2 47 1 58
9 47 9 -13 10 -12 5 3 -17 52 -19 70 -6 62 9 -6 10 -3 1 13 -6 12 -7 22 -1 24
15 5 25 88 10 88 -7 0 -10 -6 -7 -14z"/>
<path d="M1748 1104 c-4 -6 -3 -40 3 -75 11 -68 6 -162 -11 -219 -6 -19 -11
-50 -12 -67 0 -21 -4 -30 -11 -26 -6 4 -8 0 -4 -11 4 -10 3 -15 -3 -11 -9 5
-14 -15 -13 -51 0 -7 -8 -9 -20 -6 -15 4 -18 2 -11 -9 5 -8 7 -23 6 -34 -3
-20 -2 -20 13 -1 18 24 55 120 55 144 0 10 5 23 12 30 6 6 13 60 15 134 4 121
-6 224 -19 202z"/>
<path d="M675 489 c-4 -6 -13 -8 -21 -5 -8 3 -14 2 -14 -2 0 -9 184 -52 219
-52 36 0 13 19 -29 24 -19 3 -45 5 -58 5 -13 1 -21 5 -18 10 4 5 -4 7 -16 3
-15 -3 -19 -2 -14 7 6 9 0 10 -20 5 -19 -5 -25 -4 -20 5 4 6 5 11 2 11 -3 0
-8 -5 -11 -11z"/>
<path d="M645 436 c17 -8 44 -19 62 -26 19 -7 30 -17 27 -25 -5 -12 24 -30 34
-20 3 3 0 5 -6 5 -7 0 -12 5 -12 11 0 6 9 8 20 4 11 -3 27 -2 37 3 14 8 9 12
-27 22 -25 6 -67 18 -94 26 -62 18 -80 18 -41 0z"/>
<path d="M866 405 c-17 -13 -16 -14 15 -19 19 -3 79 -9 134 -13 73 -6 99 -11
97 -21 -2 -10 22 -12 103 -11 58 1 105 5 105 9 0 4 -42 9 -94 12 -72 3 -100 8
-114 21 -15 13 -43 19 -108 22 -49 3 -95 7 -104 10 -8 2 -23 -2 -34 -10z"/>
<path d="M1596 1588 c-17 -24 -13 -38 13 -38 22 0 41 19 41 42 0 25 -35 23
-54 -4z"/>
<path d="M1752 1408 c-18 -18 -15 -48 6 -48 28 0 56 25 49 44 -7 19 -38 21
-55 4z"/>
<path d="M1820 671 c0 -39 61 -56 68 -20 2 11 -8 21 -29 28 -41 14 -39 14 -39
-8z"/>
<path d="M231 517 c-11 -14 -5 -51 8 -45 3 2 18 10 34 18 15 7 26 18 24 24 -5
17 -52 19 -66 3z"/>
<path d="M610 220 c0 -9 31 -30 45 -30 3 0 1 9 -5 20 -11 20 -40 28 -40 10z"/>
<path d="M730 165 c0 -8 4 -15 9 -15 5 0 18 -3 28 -7 17 -6 17 -5 -1 15 -22
26 -36 28 -36 7z"/>
<path d="M1238 113 c-25 -6 -22 -20 4 -26 27 -7 39 -1 31 18 -5 16 -6 16 -35
8z"/>
<path d="M1048 83 c-24 -6 -26 -83 -3 -83 12 0 13 4 5 19 -17 33 -12 51 15 51
14 0 25 5 25 10 0 10 -12 11 -42 3z"/>
<path d="M990 40 c0 -22 5 -40 10 -40 6 0 10 18 10 40 0 22 -4 40 -10 40 -5 0
-10 -18 -10 -40z"/>
<path d="M1060 44 c0 -13 21 -44 30 -44 6 0 10 11 10 25 0 18 -5 25 -20 25
-11 0 -20 -3 -20 -6z"/>
</g>
</svg>
